<?xml version="1.0" encoding="utf-8"?>
<!-- Generator: Adobe Illustrator 16.0.0, SVG Export Plug-In . SVG Version: 6.00 Build 0)  -->
<svg version="1.2" baseProfile="tiny" id="Layer_1" xmlns="http://www.w3.org/2000/svg" xmlns:xlink="http://www.w3.org/1999/xlink"
	 x="0px" y="0px" width="890px" height="370px" viewBox="0 0 890 370" overflow="scroll" xml:space="preserve">
<g>
	<path id="p1" stroke="#DD0320" stroke-width="1" fill="#FFFFFF" d="M251.522,85.899v13.108c10.036-11.798,21.697-16.592,38.942-16.592c37.943,0,56.294,19.214,56.294,59.779
		v93.412c0,14.38-1.31,24.419-5.242,33.597c-6.551,17.902-24.145,27.593-48.877,27.593c-16.592,0-27.596-3.448-38.428-13.107v83.786
		h-42.876V85.899H251.522z M278.563,262.234c16.143,0,24.458-8.727,24.458-25.32v-96.03c0-17.007-7.867-25.318-24.458-25.318
		c-16.59,0-24.422,8.311-24.422,25.318v96.03c-0.033,16.627,7.832,25.354,24.422,25.354V262.234z"/>
	<path id="p2" stroke="#DD0320" stroke-width="1" fill="#FFFFFF" d="M409.919,85.899v13.108c10.04-11.798,21.836-16.592,38.842-16.592c37.941,0,56.291,19.214,56.291,59.779
		v93.412c0,14.38-1.309,24.419-5.24,33.597c-6.557,17.902-24.148,27.593-48.879,27.593c-16.593,0-27.597-3.448-38.394-13.107v83.786
		h-42.738V85.899h40.15H409.919z M437,262.234c16.141,0,24.418-8.727,24.418-25.32v-96.03c0-17.007-7.861-25.318-24.418-25.318
		c-16.558,0-24.423,8.311-24.423,25.318v96.03c0,16.627,7.832,25.354,24.423,25.354V262.234z"/>
	<rect id="i-bottom" stroke="#DD0320" stroke-width="1" fill="#FFFFFF" x="528.199" y="85.899" width="43.639" height="207.759"/>
	<path id="a2" stroke="#DD0320" stroke-width="1" fill="#FFFFFF" d="M597.154,155.3v-15.245c0-38.393,21.836-57.605,66.332-57.605s64.607,17.904,64.607,57.605v136.183
		c-0.051,5.866,0.529,11.714,1.727,17.454h-41.912l-0.447-13.072c-7.867,11.348-20.076,16.591-40.15,16.591
		c-35.357,0-53.676-16.179-53.676-47.154v-24.868c0-26.185,9.59-38.876,35.357-47.155l55.881-17.903v-19.247
		c0-16.144-7.414-23.561-22.699-23.561c-16.143,0-24.145,7.417-24.145,23.145V155.3H597.154z M653.449,203.592
		c-12.213,3.93-16.145,10.04-16.145,24.458v16.143c0,14.833,7.416,22.284,22.699,22.284c17.041,0,24.869-8.312,24.869-26.63v-46.119
		L653.449,203.592z"/>
	<path id="n" stroke="#DD0320" stroke-width="1" fill="#FFFFFF" d="M754.24,85.899h41.014v13.798c10.098-11.844,25.045-18.437,40.602-17.901
		c14.418,0,28.803,4.793,37.529,12.659c4.143,3.753,7.418,8.369,9.592,13.521c3.932,8.728,4.379,13.522,4.379,30.563v154.948
		h-43.189V140.884c0-17.007-7.861-25.318-23.145-25.318c-15.279,0-23.146,8.311-23.146,25.318v152.774H754.24V85.899z"/>
	<path id="a1" stroke="#DD0320" stroke-width="1" fill="#FFFFFF" d="M185.844,293.658V2.525h-80.165L2.644,293.658h45.67l21.076-64.986
		c5.798-12.661,11.385-13.352,21.87-17.074l53.434-17.249v98.964h3.448v0.521L185.844,293.658z M86.292,176.377l41.396-127.904h16.9
		v109.278L86.292,176.377z"/>
	<polygon id="i-top" stroke="#DD0320" stroke-width="1.2" fill="#FFFFFF" points="580.494,37.056 551.037,7.597 548.656,7.597 519.301,36.986 519.301,39.47 548.725,68.893
		551,68.893 580.494,39.401 	"/>
</g>
</svg>
